<svg width="119" height="35" viewBox="0 0 119 35" fill="none" xmlns="http://www.w3.org/2000/svg">
<path d="M35.0199 27.9999V7.63623H43.054C44.5985 7.63623 45.9143 7.93121 47.0014 8.52118C48.0885 9.10451 48.9171 9.91654 49.4872 10.9573C50.0639 11.9914 50.3523 13.1846 50.3523 14.5368C50.3523 15.8891 50.0606 17.0823 49.4773 18.1164C48.8939 19.1505 48.0488 19.9559 46.9418 20.5326C45.8414 21.1093 44.509 21.3976 42.9446 21.3976H37.8239V17.9473H42.2486C43.0772 17.9473 43.7599 17.8048 44.2969 17.5198C44.8404 17.2281 45.2448 16.8271 45.5099 16.3167C45.7817 15.7996 45.9176 15.2063 45.9176 14.5368C45.9176 13.8607 45.7817 13.2707 45.5099 12.7669C45.2448 12.2565 44.8404 11.8621 44.2969 11.5837C43.7533 11.2987 43.0639 11.1561 42.2287 11.1561H39.3253V27.9999H35.0199ZM57.0142 28.2883C56.0398 28.2883 55.1714 28.1192 54.4091 27.7811C53.6468 27.4365 53.0436 26.9294 52.5994 26.2598C52.1619 25.5837 51.9432 24.7419 51.9432 23.7343C51.9432 22.8858 52.099 22.1732 52.4105 21.5965C52.7221 21.0198 53.1463 20.5558 53.6832 20.2044C54.2202 19.8531 54.83 19.588 55.5128 19.409C56.2022 19.23 56.9247 19.1041 57.6804 19.0311C58.5687 18.9383 59.2846 18.8522 59.8281 18.7726C60.3717 18.6865 60.7661 18.5605 61.0114 18.3948C61.2566 18.2291 61.3793 17.9838 61.3793 17.659V17.5993C61.3793 16.9696 61.1804 16.4824 60.7827 16.1377C60.3916 15.793 59.8348 15.6206 59.1122 15.6206C58.3499 15.6206 57.7434 15.7897 57.2926 16.1277C56.8419 16.4592 56.5436 16.8768 56.3977 17.3806L52.4801 17.0624C52.679 16.1344 53.0701 15.3323 53.6534 14.6561C54.2367 13.9734 54.9891 13.4497 55.9105 13.0851C56.8385 12.7139 57.9124 12.5283 59.1321 12.5283C59.9806 12.5283 60.7926 12.6277 61.5682 12.8266C62.3504 13.0255 63.0431 13.3337 63.6463 13.7513C64.2562 14.1689 64.7367 14.7059 65.0881 15.3621C65.4394 16.0117 65.6151 16.7906 65.6151 17.6988V27.9999H61.598V25.882H61.4787C61.2334 26.3593 60.9053 26.7802 60.4943 27.1448C60.0833 27.5027 59.5895 27.7845 59.0128 27.99C58.4361 28.1888 57.7699 28.2883 57.0142 28.2883ZM58.2273 25.365C58.8504 25.365 59.4006 25.2423 59.8778 24.9971C60.3551 24.7452 60.7296 24.4071 61.0014 23.9829C61.2732 23.5586 61.4091 23.078 61.4091 22.5411V20.9204C61.2765 21.0065 61.0942 21.0861 60.8622 21.159C60.6368 21.2253 60.3816 21.2883 60.0966 21.3479C59.8116 21.4009 59.5265 21.4507 59.2415 21.4971C58.9564 21.5368 58.6979 21.5733 58.4659 21.6064C57.9688 21.6794 57.5346 21.7954 57.1634 21.9544C56.7921 22.1135 56.5038 22.329 56.2983 22.6008C56.0928 22.8659 55.9901 23.1973 55.9901 23.5951C55.9901 24.1718 56.1989 24.6126 56.6165 24.9175C57.0407 25.2158 57.5777 25.365 58.2273 25.365ZM75.782 34.0454C74.4098 34.0454 73.2332 33.8564 72.2521 33.4786C71.2777 33.1074 70.5021 32.6003 69.9254 31.9573C69.3487 31.3143 68.9742 30.5918 68.8018 29.7897L72.7195 29.2627C72.8388 29.5676 73.0277 29.8526 73.2862 30.1178C73.5447 30.3829 73.8861 30.5951 74.3104 30.7542C74.7412 30.9199 75.2649 31.0027 75.8814 31.0027C76.8028 31.0027 77.5618 30.7774 78.1584 30.3266C78.7616 29.8825 79.0632 29.1367 79.0632 28.0894V25.2954H78.8842C78.6986 25.7196 78.4202 26.1206 78.049 26.4985C77.6778 26.8763 77.2005 27.1846 76.6172 27.4232C76.0339 27.6618 75.3378 27.7811 74.5291 27.7811C73.3823 27.7811 72.3383 27.516 71.397 26.9857C70.4624 26.4488 69.7166 25.6301 69.1598 24.5297C68.6096 23.4227 68.3345 22.024 68.3345 20.3337C68.3345 18.6036 68.6162 17.1585 69.1797 15.9985C69.7431 14.8384 70.4922 13.9701 71.4268 13.3934C72.3681 12.8167 73.3989 12.5283 74.5192 12.5283C75.3743 12.5283 76.0902 12.6741 76.6669 12.9658C77.2436 13.2508 77.7076 13.6088 78.0589 14.0397C78.4169 14.4639 78.692 14.8815 78.8842 15.2925H79.0433V12.7272H83.2493V28.149C83.2493 29.4483 82.9311 30.5354 82.2947 31.4104C81.6584 32.2854 80.7768 32.9417 79.6499 33.3792C78.5296 33.8233 77.2403 34.0454 75.782 34.0454ZM75.8714 24.5993C76.5542 24.5993 77.1309 24.4303 77.6016 24.0922C78.0788 23.7475 78.4434 23.257 78.6953 22.6206C78.9538 21.9776 79.0831 21.2087 79.0831 20.3138C79.0831 19.4189 78.9571 18.6434 78.7053 17.9871C78.4534 17.3242 78.0888 16.8105 77.6115 16.4459C77.1342 16.0813 76.5542 15.899 75.8714 15.899C75.1754 15.899 74.5888 16.088 74.1115 16.4658C73.6342 16.837 73.273 17.3541 73.0277 18.0169C72.7824 18.6798 72.6598 19.4454 72.6598 20.3138C72.6598 21.1954 72.7824 21.9578 73.0277 22.6008C73.2796 23.2371 73.6409 23.731 74.1115 24.0823C74.5888 24.427 75.1754 24.5993 75.8714 24.5993ZM93.5803 28.2982C92.0092 28.2982 90.657 27.98 89.5234 27.3437C88.3965 26.7007 87.5282 25.7925 86.9183 24.6192C86.3085 23.4393 86.0036 22.0439 86.0036 20.4331C86.0036 18.8621 86.3085 17.4833 86.9183 16.2968C87.5282 15.1102 88.3866 14.1855 89.4936 13.5226C90.6072 12.8597 91.9131 12.5283 93.4112 12.5283C94.4188 12.5283 95.3568 12.6907 96.2251 13.0155C97.1001 13.3337 97.8625 13.8143 98.5121 14.4573C99.1683 15.1003 99.6787 15.909 100.043 16.8834C100.408 17.8512 100.59 18.9847 100.59 20.284V21.4473H87.6939V18.8223H96.603C96.603 18.2125 96.4704 17.6722 96.2053 17.2016C95.9401 16.731 95.5722 16.3631 95.1016 16.0979C94.6375 15.8261 94.0973 15.6902 93.4808 15.6902C92.8378 15.6902 92.2678 15.8394 91.7706 16.1377C91.2801 16.4294 90.8956 16.8238 90.6172 17.3209C90.3388 17.8115 90.1963 18.3583 90.1896 18.9615V21.4573C90.1896 22.213 90.3288 22.8659 90.6072 23.4161C90.8923 23.9663 91.2933 24.3905 91.8104 24.6888C92.3274 24.9871 92.9406 25.1363 93.6499 25.1363C94.1205 25.1363 94.5514 25.07 94.9425 24.9374C95.3336 24.8048 95.6683 24.606 95.9467 24.3408C96.2251 24.0757 96.4373 23.7508 96.5831 23.3664L100.501 23.6249C100.302 24.5662 99.8942 25.3882 99.2777 26.0908C98.6679 26.7868 97.879 27.3304 96.9112 27.7215C95.95 28.106 94.8397 28.2982 93.5803 28.2982ZM116.062 17.0823L112.184 17.3209C112.118 16.9895 111.975 16.6912 111.756 16.426C111.538 16.1543 111.249 15.9388 110.891 15.7797C110.54 15.614 110.119 15.5311 109.629 15.5311C108.972 15.5311 108.419 15.6704 107.968 15.9488C107.517 16.2205 107.292 16.5851 107.292 17.0425C107.292 17.4071 107.438 17.7153 107.729 17.9672C108.021 18.2191 108.522 18.4213 109.231 18.5738L111.995 19.1306C113.48 19.4355 114.587 19.926 115.316 20.6022C116.045 21.2783 116.41 22.1666 116.41 23.2669C116.41 24.2679 116.115 25.1462 115.525 25.9019C114.942 26.6576 114.139 27.2475 113.119 27.6718C112.104 28.0894 110.934 28.2982 109.609 28.2982C107.587 28.2982 105.976 27.8773 104.776 27.0354C103.583 26.1869 102.884 25.0335 102.678 23.5752L106.844 23.3564C106.97 23.9729 107.275 24.4436 107.759 24.7684C108.243 25.0865 108.863 25.2456 109.619 25.2456C110.361 25.2456 110.958 25.1031 111.408 24.8181C111.866 24.5264 112.098 24.1519 112.104 23.6945C112.098 23.31 111.935 22.9952 111.617 22.7499C111.299 22.498 110.808 22.3058 110.146 22.1732L107.501 21.6462C106.009 21.3479 104.899 20.8309 104.17 20.0951C103.447 19.3593 103.086 18.4213 103.086 17.2811C103.086 16.3001 103.351 15.4549 103.881 14.7456C104.418 14.0364 105.171 13.4895 106.138 13.105C107.113 12.7205 108.253 12.5283 109.559 12.5283C111.488 12.5283 113.006 12.936 114.113 13.7513C115.227 14.5667 115.876 15.677 116.062 17.0823Z" fill="#F5F8FC"/>
<path d="M3.56348 25.4H24.5V3H3.5057C1.57228 3.00642 0.00635613 4.58725 0 6.53908V27.1646H0.00057783C0.00057783 27.1733 0 27.1821 0 27.1908C0 29.2558 1.60521 31 3.5057 31H24.5V29.1333H3.5057C2.63895 29.1333 1.84906 28.2076 1.84906 27.1908C1.84906 26.2202 2.63433 25.4 3.56348 25.4ZM5.54717 4.88592H11.0943V14.9671L8.29764 12.4885L5.54717 14.9525V4.88592ZM1.84906 6.55367C1.84617 5.62617 2.58695 4.87192 3.5057 4.86667H3.69811H5.54717H3.69811V17.4667H5.52637L8.30458 14.9782L11.1117 17.4667H12.9434V4.86667H22.6509V23.5333H5.55179H3.70274H3.56348C2.96196 23.5333 2.37141 23.692 1.84963 23.993V6.55367H1.84906Z" fill="#FFCA42"/>
</svg>
